<svg width="167" height="59" viewBox="0 0 167 59" fill="none" xmlns="http://www.w3.org/2000/svg">
<g filter="url(#filter0_d_95_300)">
<rect x="11.3496" y="2" width="130.502" height="8.81905" rx="4.40952" transform="rotate(8.80532 11.3496 2)" fill="#E9E9E9"/>
</g>
<g filter="url(#filter1_d_95_300)">
<path d="M11.6746 22.3576C12.0474 19.9509 14.3006 18.3022 16.7072 18.675L114.737 33.8601C117.144 34.2329 118.792 36.4861 118.42 38.8927C118.047 41.2993 115.794 42.948 113.387 42.5752L15.3572 27.3901C12.9506 27.0173 11.3018 24.7642 11.6746 22.3576Z" fill="#E9E9E9"/>
</g>
<g filter="url(#filter2_d_95_300)">
<path d="M119.443 39.429C119.816 37.0224 122.069 35.3736 124.476 35.7464L162.328 41.6099C164.735 41.9827 166.384 44.2358 166.011 46.6424C165.638 49.049 163.385 50.6978 160.978 50.325L123.126 44.4615C120.719 44.0887 119.07 41.8356 119.443 39.429Z" fill="#E9E9E9"/>
</g>
<g filter="url(#filter3_d_95_300)">
<path d="M12.1453 38.6941C12.5181 36.2875 14.7713 34.6388 17.1779 35.0115L55.0303 40.875C57.4369 41.2478 59.0857 43.501 58.7129 45.9076C58.3401 48.3142 56.0869 49.9629 53.6803 49.5901L15.8279 43.7267C13.4213 43.3539 11.7725 41.1007 12.1453 38.6941Z" fill="#E9E9E9"/>
</g>
<defs>
<filter id="filter0_d_95_300" x="0.192588" y="0.347378" width="139.498" height="37.8766" filterUnits="userSpaceOnUse" color-interpolation-filters="sRGB">
<feFlood flood-opacity="0" result="BackgroundImageFix"/>
<feColorMatrix in="SourceAlpha" type="matrix" values="0 0 0 0 0 0 0 0 0 0 0 0 0 0 0 0 0 0 127 0" result="hardAlpha"/>
<feOffset dx="-5.21474" dy="2.93968"/>
<feGaussianBlur stdDeviation="2.60737"/>
<feComposite in2="hardAlpha" operator="out"/>
<feColorMatrix type="matrix" values="0 0 0 0 0 0 0 0 0 0 0 0 0 0 0 0 0 0 0.14 0"/>
<feBlend mode="normal" in2="BackgroundImageFix" result="effect1_dropShadow_95_300"/>
<feBlend mode="normal" in="SourceGraphic" in2="effect1_dropShadow_95_300" result="shape"/>
</filter>
<filter id="filter1_d_95_300" x="1.19259" y="16.3474" width="117.279" height="34.4349" filterUnits="userSpaceOnUse" color-interpolation-filters="sRGB">
<feFlood flood-opacity="0" result="BackgroundImageFix"/>
<feColorMatrix in="SourceAlpha" type="matrix" values="0 0 0 0 0 0 0 0 0 0 0 0 0 0 0 0 0 0 127 0" result="hardAlpha"/>
<feOffset dx="-5.21474" dy="2.93968"/>
<feGaussianBlur stdDeviation="2.60737"/>
<feComposite in2="hardAlpha" operator="out"/>
<feColorMatrix type="matrix" values="0 0 0 0 0 0 0 0 0 0 0 0 0 0 0 0 0 0 0.14 0"/>
<feBlend mode="normal" in2="BackgroundImageFix" result="effect1_dropShadow_95_300"/>
<feBlend mode="normal" in="SourceGraphic" in2="effect1_dropShadow_95_300" result="shape"/>
</filter>
<filter id="filter2_d_95_300" x="108.961" y="33.4188" width="57.1023" height="25.1132" filterUnits="userSpaceOnUse" color-interpolation-filters="sRGB">
<feFlood flood-opacity="0" result="BackgroundImageFix"/>
<feColorMatrix in="SourceAlpha" type="matrix" values="0 0 0 0 0 0 0 0 0 0 0 0 0 0 0 0 0 0 127 0" result="hardAlpha"/>
<feOffset dx="-5.21474" dy="2.93968"/>
<feGaussianBlur stdDeviation="2.60737"/>
<feComposite in2="hardAlpha" operator="out"/>
<feColorMatrix type="matrix" values="0 0 0 0 0 0 0 0 0 0 0 0 0 0 0 0 0 0 0.14 0"/>
<feBlend mode="normal" in2="BackgroundImageFix" result="effect1_dropShadow_95_300"/>
<feBlend mode="normal" in="SourceGraphic" in2="effect1_dropShadow_95_300" result="shape"/>
</filter>
<filter id="filter3_d_95_300" x="1.66329" y="32.6839" width="57.1023" height="25.1132" filterUnits="userSpaceOnUse" color-interpolation-filters="sRGB">
<feFlood flood-opacity="0" result="BackgroundImageFix"/>
<feColorMatrix in="SourceAlpha" type="matrix" values="0 0 0 0 0 0 0 0 0 0 0 0 0 0 0 0 0 0 127 0" result="hardAlpha"/>
<feOffset dx="-5.21474" dy="2.93968"/>
<feGaussianBlur stdDeviation="2.60737"/>
<feComposite in2="hardAlpha" operator="out"/>
<feColorMatrix type="matrix" values="0 0 0 0 0 0 0 0 0 0 0 0 0 0 0 0 0 0 0.14 0"/>
<feBlend mode="normal" in2="BackgroundImageFix" result="effect1_dropShadow_95_300"/>
<feBlend mode="normal" in="SourceGraphic" in2="effect1_dropShadow_95_300" result="shape"/>
</filter>
</defs>
</svg>
